Coordinates
version=1
nRows=11
nColumns=32
inDegrees=yes

Units are S.I. units (second, meters, Newtons, ...)
If the header above contains a line with 'inDegrees', this indicates whether rotational values are in degrees (yes) or radians (no).

endheader
time	pelvis_tilt	pelvis_list	pelvis_rotation	pelvis_tx	pelvis_ty	pelvis_tz	hip_flexion_r	hip_adduction_r	hip_rotation_r	knee_angle_r	knee_adduction_r	med_cond_adduction_r	lat_cond_adduction_r	patella_r_constrained_knee_angle	hip_flexion_l	hip_adduction_l	hip_rotation_l	knee_angle_l	knee_adduction_l	med_cond_adduction_l	lat_cond_adduction_l	patella_l_constrained_knee_angle	lumbar_extension	lumbar_bending	lumbar_rotation	ankle_angle_r	subtalar_angle_r	mtp_angle_r	ankle_angle_l	subtalar_angle_l	mtp_angle_l
      0.79000000	     -8.81473198	     -3.13504935	     -3.25420556	     -0.32362901	      0.86125804	      0.20532204	     20.78049805	      7.80852198	      6.06900037	    -21.55175030	      1.77283820	     -0.00000000	     -0.00000000	     -0.37614900	     36.71800495	     -8.88367556	      2.31094898	    -65.67308660	      8.49084360	     -0.00000000	      0.00000000	     -1.14621159	     -9.87713155	      6.26885143	      4.03230493	     11.36812754	      9.52632426	      0.00000000	      2.54378487	     17.56429148	     -0.00000000
      0.79500000	     -8.86881911	     -3.17336189	     -3.49887440	     -0.31746894	      0.86184924	      0.20568017	     19.96186231	      7.88497394	      6.56594205	    -20.84939651	      1.86554066	      0.00000000	      0.00000000	     -0.36389062	     37.40555192	     -9.18494786	      2.17276369	    -64.92457804	      8.59233864	      0.00000000	      0.00000000	     -1.13314765	     -9.83252865	      6.23076129	      4.26888296	     11.30285941	      9.09611429	     -0.00000000	      3.03616270	     17.36371940	      0.00000000
      0.80000000	     -8.82122805	     -3.09121084	     -3.63377174	     -0.31115134	      0.86254188	      0.20582392	     19.13560509	      7.76169789	      6.38491578	    -20.34692288	      1.75002283	     -0.00000000	     -0.00000000	     -0.35512080	     37.88942296	     -9.24030220	      2.05990505	    -63.97585015	      8.65799599	      0.00000000	      0.00000000	     -1.11658923	     -9.96322497	      6.11721735	      4.39263311	     11.54216345	      9.83213102	     -0.00000000	      3.44995065	     16.99755843	     -0.00000000
      0.80500000	     -8.75818952	     -3.06486751	     -3.77730169	     -0.30487213	      0.86318122	      0.20596117	     18.27015315	      7.69125885	      6.29580734	    -19.79565313	      1.69433709	     -0.00000000	     -0.00000000	     -0.34549932	     38.32581985	     -9.34983908	      1.99319546	    -62.94326086	      8.73999579	     -0.00000000	     -0.00000000	     -1.09856714	    -10.16268215	      6.11270340	      4.50368584	     11.72623872	     10.27329554	     -0.00000000	      3.81581608	     16.57857685	     -0.00000000
      0.81000000	     -8.78956065	     -3.05162021	     -3.95300305	     -0.29854576	      0.86365468	      0.20609460	     17.49542128	      7.64821445	      6.30790976	    -19.23325695	      1.65484546	     -0.00000000	     -0.00000000	     -0.33568366	     38.82330786	     -9.48008719	      1.92069884	    -61.83839453	      8.81196575	     -0.00000000	     -0.00000000	     -1.07928359	    -10.16693249	      6.10472164	      4.61967908	     11.86224823	     10.56376644	     -0.00000000	      4.11757722	     16.08676927	      0.00000000
      0.81500000	     -8.76729468	     -3.03103128	     -4.11103616	     -0.29225939	      0.86411675	      0.20617023	     16.67648343	      7.56737183	      6.30352126	    -18.68948954	      1.65398439	     -0.00000000	     -0.00000000	     -0.32619313	     39.22424916	     -9.56527202	      1.86846875	    -60.64696787	      8.87363277	     -0.00000000	     -0.00000000	     -1.05848927	    -10.25286851	      6.07044061	      4.77632941	     12.01983827	     10.92871183	     -0.00000000	      4.34663206	     15.42532128	      0.00000000
      0.82000000	     -8.85580003	     -2.90613742	     -4.39929593	     -0.28592159	      0.86446173	      0.20636405	     16.01239419	      7.40720220	      6.39462505	    -18.20140972	      1.64428237	      0.00000000	      0.00000000	     -0.31767453	     39.64768894	     -9.63051726	      1.66806962	    -59.30989121	      8.93556129	     -0.00000000	     -0.00000000	     -1.03515288	    -10.17216076	      5.98481255	      4.91027724	     12.16370159	     11.40427464	      0.00000000	      4.49229923	     14.72383028	     -0.00000000
      0.82500000	     -8.91061274	     -3.07126001	     -4.54895734	     -0.27963220	      0.86469794	      0.20640095	     15.20049386	      7.54996772	      6.63525612	    -17.51816258	      1.69385301	     -0.00000000	     -0.00000000	     -0.30574962	     40.09474286	     -9.88878214	      1.75076491	    -58.00023342	      8.99065652	     -0.00000000	     -0.00000000	     -1.01229504	    -10.24471414	      6.27453659	      4.99762586	     12.15226670	     10.99208455	     -0.00000000	      4.77691076	     14.17286788	      0.00000000
      0.83000000	     -8.92521383	     -3.04140811	     -4.72242538	     -0.27336544	      0.86495218	      0.20635870	     14.48466587	      7.42746124	      6.58796973	    -17.06956854	      1.72615656	      0.00000000	      0.00000000	     -0.29792017	     40.39473711	     -9.91975815	      1.75689634	    -56.50956225	      9.04804648	     -0.00000000	     -0.00000000	     -0.98627792	    -10.32100122	      6.29568644	      5.18914500	     12.31761276	     11.36649535	     -0.00000000	      4.88473418	     13.23827346	     -0.00000000
      0.83500000	     -8.98950508	     -2.98417718	     -4.93496976	     -0.26704977	      0.86509685	      0.20637659	     13.86449763	      7.29370230	      6.47827122	    -16.70007747	      1.71747767	      0.00000000	     -0.00000000	     -0.29147134	     40.68062430	     -9.94782951	      1.69394464	    -54.90488034	      9.07545670	      0.00000000	      0.00000000	     -0.95827094	    -10.26954775	      6.27126284	      5.33197880	     12.55000971	     11.97546349	     -0.00000000	      4.88321941	     12.22514401	     -0.00000000
      0.84000000	     -9.03064022	     -3.16655726	     -5.08312493	     -0.26083105	      0.86515269	      0.20629336	     13.10490290	      7.41860774	      6.66032167	    -16.12460745	      1.80121456	      0.00000000	      0.00000000	     -0.28142749	     40.99106977	    -10.17890482	      1.82792516	    -53.34310956	      9.11003676	     -0.00000000	     -0.00000000	     -0.93101289	    -10.37776906	      6.59332894	      5.40635063	     12.50192489	     11.66004438	      0.00000000	      5.03571648	     11.51904491	      0.00000000
